<svg xmlns="http://www.w3.org/2000/svg" aria-hidden="true" data-prefix="fas" data-icon="spinner" class="svg-inline--fa fa-spinner fa-w-16" role="img" viewBox="0 0 512 512" width="100%" height="100%"  xmlns:xlink="http://www.w3.org/1999/xlink"><rect id="svgEditorBackground" x="0" y="0" width="512" height="512" style="fill:none;stroke:none;"/><path d="M304,48c0,26.510000000000005,-21.49000000000001,48,-48,48s-48,-21.489999999999995,-48,-48s21.49000000000001,-48,48,-48s48,21.49,48,48ZM256,416c-26.50999999999999,0,-48,21.49000000000001,-48,48s21.49000000000001,48,48,48s48,-21.49000000000001,48,-48s-21.49000000000001,-48,-48,-48ZM464,208c-26.50999999999999,0,-48,21.49000000000001,-48,48s21.49000000000001,48,48,48s48,-21.49000000000001,48,-48s-21.49000000000001,-48,-48,-48ZM96,256c0,-26.50999999999999,-21.489999999999995,-48,-48,-48s-48,21.49000000000001,-48,48s21.49,48,48,48s48,-21.49000000000001,48,-48ZM108.922,355.078c-26.510000000000005,0,-48,21.49000000000001,-48,48s21.489999999999995,48,48,48s48,-21.49000000000001,48,-48c0,-26.509000000000015,-21.491000000000014,-48,-48,-48ZM403.078,355.078c-26.50999999999999,0,-48,21.49000000000001,-48,48s21.49000000000001,48,48,48s48,-21.49000000000001,48,-48c0,-26.509000000000015,-21.49000000000001,-48,-48,-48ZM108.922,60.922c-26.510000000000005,0,-48,21.489999999999995,-48,48s21.489999999999995,48,48,48s48,-21.49000000000001,48,-48s-21.491000000000014,-48,-48,-48Z" style="fill:#F72222;"/></svg>